<svg xmlns="http://www.w3.org/2000/svg" viewBox="0 0 900 620" role="img" aria-labelledby="title">
  <title id="title">Mock Raw Athletic product and creative board</title>
  <rect width="900" height="620" fill="#10120e"/>
  <rect x="62" y="64" width="272" height="492" rx="8" fill="#d8ff57"/>
  <rect x="104" y="128" width="188" height="328" rx="14" fill="#070806"/>
  <rect x="132" y="172" width="132" height="24" fill="#f2f5ea"/>
  <rect x="132" y="214" width="92" height="12" fill="#d8ff57"/>
  <rect x="132" y="386" width="132" height="20" fill="#f2f5ea"/>
  <circle cx="242" cy="494" r="24" fill="#070806"/>
  <rect x="384" y="82" width="448" height="110" rx="8" fill="#f2f5ea"/>
  <rect x="422" y="122" width="212" height="18" fill="#070806"/>
  <rect x="422" y="152" width="320" height="8" fill="#8d9287"/>
  <rect x="384" y="232" width="206" height="264" rx="8" fill="#1b1e17"/>
  <rect x="626" y="232" width="206" height="264" rx="8" fill="#1b1e17"/>
  <path d="M421 434 C457 348 499 344 552 284" stroke="#d8ff57" stroke-width="10" fill="none"/>
  <path d="M666 408 C702 372 742 322 790 286" stroke="#f2f5ea" stroke-width="10" fill="none"/>
  <rect x="424" y="270" width="96" height="16" fill="#f2f5ea"/>
  <rect x="666" y="270" width="96" height="16" fill="#d8ff57"/>
</svg>
